<svg width="144" height="50" viewBox="0 0 144 50" fill="none" xmlns="http://www.w3.org/2000/svg">
<rect width="144" height="50" rx="20" fill="#950FFF"/>
<path d="M58.5171 23.5497H64.8903C68.7714 23.5497 71.815 23.039 71.815 19.6686C71.815 17.4217 70.4668 16.1756 68.0564 15.9509C69.1391 15.7467 70.7528 15.0521 70.7528 12.6213C70.7528 9.84328 68.7714 9.14877 64.7473 9.14877H58.5171V23.5497ZM62.6557 20.3836C62.3239 20.3836 62.0549 20.1146 62.0549 19.7828V17.5034H65.0945C66.933 17.5034 68.0564 17.4217 68.0564 18.9332C68.0564 20.4448 66.9942 20.3836 65.0945 20.3836H62.6557ZM62.0549 14.6027V12.7319C62.0549 12.4001 62.3239 12.1311 62.6557 12.1311H65.115C66.3406 12.1311 67.1577 12.1107 67.1577 13.3771C67.1577 14.6845 66.2589 14.6027 65.115 14.6027H62.0549Z" fill="white"/>
<path d="M87.8482 16.339C87.8482 20.6082 90.9286 23.8357 95.6268 23.8357C100.305 23.8357 103.365 20.6082 103.365 16.339C103.365 12.0902 100.305 8.86279 95.6268 8.86279C90.9286 8.86279 87.8482 12.0902 87.8482 16.339ZM91.6884 16.339C91.6884 13.7448 93.1347 12.4335 95.6268 12.4335C98.0984 12.4335 99.5447 13.7244 99.5447 16.339C99.5447 18.9537 98.1189 20.265 95.6268 20.265C93.1347 20.265 91.6884 18.9537 91.6884 16.339Z" fill="white"/>
<path fill-rule="evenodd" clip-rule="evenodd" d="M105.479 9.26332H117.729V12.4675H112.285L117.474 18.7442C117.954 18.045 118.359 17.1655 118.647 16.0662L121.746 16.8794C121.272 18.6884 120.516 20.1447 119.569 21.2784L120.712 22.6615L118.242 24.7031L117.102 23.3235C116.627 23.5865 116.132 23.8018 115.622 23.9712C112.956 24.8577 110.081 24.4306 107.935 23.3821C106.855 22.8547 105.876 22.1303 105.184 21.2375C104.487 20.3388 104.025 19.1823 104.22 17.9056C104.416 16.6259 105.224 15.5509 106.402 14.7138C107.084 14.2288 107.922 13.7986 108.919 13.4244L105.479 9.26332ZM111.108 16.0727C109.76 16.466 108.847 16.9073 108.258 17.3256C107.554 17.8257 107.415 18.2144 107.387 18.3912C107.36 18.5712 107.398 18.8643 107.716 19.2747C108.039 19.691 108.588 20.1354 109.341 20.5029C110.858 21.2442 112.863 21.5118 114.611 20.9307C114.742 20.8871 114.873 20.8384 115.003 20.7842L111.108 16.0727Z" fill="white"/>
<path d="M73.5352 23.5397H77.073V18.6577H82.2082C82.54 18.6577 82.809 18.9267 82.809 19.2585V23.5397H86.5063V19.1684C86.5063 17.8406 85.8117 16.5946 83.8303 16.5946H82.9191C84.8108 16.468 86.3428 15.2669 86.3428 12.9586C86.3428 9.79246 83.1562 9.1388 79.8879 9.1388H73.5352V23.5397ZM77.073 15.4303V12.3867H79.8879C81.4608 12.3867 82.6456 12.4275 82.6456 13.9187C82.6456 15.369 81.5425 15.4303 79.8879 15.4303H77.073Z" fill="white"/>
<path d="M76.5601 41.8628H80.453L81.7982 37.4759H87.2605L88.6057 41.8628H92.5394L87.9535 27.3428H81.1663L76.5601 41.8628ZM82.8173 34.2012L84.5293 28.6609L86.2414 34.2012H82.8173Z" fill="black"/>
<path d="M93.464 41.8628H97.1735V37.8878H99.1302C103.635 37.8878 105.632 36.3637 105.632 32.6359C105.632 28.8669 103.635 27.3428 99.1302 27.3428H93.464V41.8628ZM97.1735 34.6131V30.6175H99.3544C101.148 30.6175 101.943 31.1118 101.943 32.6359C101.943 34.1188 101.148 34.6131 99.3544 34.6131H97.1735Z" fill="black"/>
<path d="M107.198 41.8628H110.907V37.8878H112.864C117.368 37.8878 119.366 36.3637 119.366 32.6359C119.366 28.8669 117.368 27.3428 112.864 27.3428H107.198V41.8628ZM110.907 34.6131V30.6175H113.088C114.882 30.6175 115.677 31.1118 115.677 32.6359C115.677 34.1188 114.882 34.6131 113.088 34.6131H110.907Z" fill="black"/>
<path fill-rule="evenodd" clip-rule="evenodd" d="M58.8181 27.4873H71.0676V30.6915H65.6242L70.8128 36.9682C71.2928 36.269 71.6976 35.3895 71.986 34.2902L75.0853 35.1034C74.6106 36.9124 73.8555 38.3687 72.9077 39.5024L74.0511 40.8855L71.5815 42.927L70.441 41.5475C69.9658 41.8105 69.4706 42.0258 68.961 42.1952C66.2951 43.0817 63.4204 42.6546 61.2735 41.6061C60.1938 41.0787 59.2146 40.3543 58.5226 39.4615C57.8261 38.5628 57.3636 37.4063 57.5593 36.1296C57.7555 34.8499 58.5631 33.7749 59.7409 32.9378C60.4233 32.4528 61.2613 32.0226 62.2579 31.6484L58.8181 27.4873ZM64.4471 34.2966C63.0992 34.69 62.1857 35.1313 61.5972 35.5495C60.8935 36.0497 60.7536 36.4384 60.7265 36.6152C60.6989 36.7952 60.7372 37.0882 61.0552 37.4987C61.3779 37.915 61.9272 38.3593 62.6798 38.7269C64.1975 39.4682 66.2024 39.7358 67.9499 39.1547C68.081 39.1111 68.2118 39.0624 68.3419 39.0082L64.4471 34.2966Z" fill="white"/>
<rect x="4.1333" y="3.93799" width="49.4057" height="42.1533" rx="16.5943" fill="white"/>
<path d="M28.3222 7.16602H21.4969C15.7547 7.16602 10.8117 10.5881 8.59628 15.5042L9.53219 15.9341C10.9022 16.5633 12.4801 16.5633 13.8501 15.9341L25.4756 10.5945C26.9173 9.93228 27.9502 8.65867 28.3222 7.16602Z" fill="black"/>
<path d="M8.05437 34.768C7.59984 33.381 7.354 31.8993 7.354 30.3603V21.3089C7.354 19.7698 7.59984 18.2882 8.05437 16.9011C9.7066 17.7957 10.7483 19.5244 10.7483 21.416V30.2532C10.7483 32.1448 9.7066 33.8735 8.05437 34.768Z" fill="black"/>
<path d="M28.2713 44.5032H21.4969C15.8155 44.5032 10.9166 41.1532 8.66764 36.3208L9.53219 35.9237C10.9022 35.2944 12.4801 35.2944 13.8501 35.9237L25.4756 41.2633C26.8562 41.8974 27.8619 43.0922 28.2713 44.5032Z" fill="black"/>
<path d="M49.2888 36.1777C47.0706 41.0869 42.1313 44.5032 36.394 44.5032H29.9967C30.4061 43.0922 31.4118 41.8974 32.7924 41.2633L44.4179 35.9237C45.7879 35.2944 47.3658 35.2944 48.7358 35.9237L49.2888 36.1777Z" fill="black"/>
<path d="M49.8088 16.8176C50.2811 18.2287 50.5369 19.7389 50.5369 21.3089V30.3603C50.5369 31.9303 50.2811 33.4405 49.8088 34.8515C48.0636 33.9842 46.954 32.2055 46.954 30.2532V21.416C46.954 19.4637 48.0636 17.685 49.8088 16.8176Z" fill="black"/>
<path d="M29.9458 7.16602H36.394C42.1921 7.16602 47.1752 10.655 49.3585 15.6481L48.7358 15.9341C47.3658 16.5633 45.7879 16.5633 44.4179 15.9341L32.7924 10.5945C31.3507 9.93228 30.3178 8.65867 29.9458 7.16602Z" fill="black"/>
<path d="M31.0101 11.4094C29.6401 10.7801 28.0622 10.7801 26.6922 11.4094L15.0667 16.749C13.239 17.5885 12.0683 19.4107 12.0683 21.416V30.2532C12.0683 32.2585 13.239 34.0807 15.0667 34.9202L26.6922 40.2598C28.0622 40.889 29.6401 40.889 31.0101 40.2598L42.6356 34.9202C44.4633 34.0807 45.634 32.2585 45.634 30.2532V21.416C45.634 19.4106 44.4633 17.5885 42.6356 16.749L31.0101 11.4094Z" fill="black"/>
<path d="M28.8512 13.0117C28.8512 20.0936 23.1102 25.8346 16.0283 25.8346C23.1102 25.8346 28.8512 31.5756 28.8512 38.6574C28.8512 31.5756 34.5922 25.8346 41.674 25.8346C34.5922 25.8346 28.8512 20.0936 28.8512 13.0117Z" fill="white"/>
</svg>
