<svg width="144" height="50" viewBox="0 0 144 50" fill="none" xmlns="http://www.w3.org/2000/svg">
<rect width="144" height="50" rx="20" fill="#950FFF"/>
<rect x="4.0415" y="3.93848" width="48.3073" height="42.1533" rx="16.1898" fill="white"/>
<mask id="mask0_2350_9639" style="mask-type:alpha" maskUnits="userSpaceOnUse" x="7" y="6" width="43" height="38">
<rect x="7.17432" y="6.99121" width="42.1302" height="36.427" rx="13.6141" fill="#D9D9D9"/>
</mask>
<g mask="url(#mask0_2350_9639)">
<rect x="7.17432" y="6.99121" width="42.1302" height="36.427" rx="13.6141" fill="black"/>
<path d="M25.8337 13.6424C26.8883 11.765 29.5909 11.765 30.6456 13.6424L32.6572 17.2231C33.0514 17.9247 33.7321 18.4193 34.5212 18.5774L38.5483 19.384C40.6596 19.8069 41.4948 22.3772 40.0353 23.9604L37.2514 26.9801C36.7059 27.5718 36.4459 28.372 36.5394 29.1713L37.0167 33.2506C37.2669 35.3893 35.0805 36.9778 33.1238 36.079L29.3916 34.3645C28.6604 34.0286 27.8189 34.0286 27.0877 34.3645L23.3555 36.079C21.3988 36.9778 19.2124 35.3893 19.4626 33.2506L19.9398 29.1713C20.0334 28.372 19.7733 27.5718 19.2279 26.9801L16.444 23.9604C14.9845 22.3773 15.8196 19.8069 17.931 19.384L21.9581 18.5774C22.7471 18.4193 23.4279 17.9247 23.822 17.2231L25.8337 13.6424Z" fill="white"/>
</g>
<path d="M57.0908 22.9754H63.3086C67.0951 22.9754 70.0645 22.4772 70.0645 19.1889C70.0645 16.9967 68.7492 15.781 66.3976 15.5618C67.4539 15.3625 69.0282 14.6849 69.0282 12.3134C69.0282 9.60307 67.0951 8.92549 63.1691 8.92549H57.0908V22.9754ZM61.1286 19.8864C60.8049 19.8864 60.5424 19.624 60.5424 19.3003V17.0764H63.5079C65.3015 17.0764 66.3976 16.9967 66.3976 18.4714C66.3976 19.9462 65.3613 19.8864 63.5079 19.8864H61.1286ZM60.5424 14.2465V12.4213C60.5424 12.0975 60.8049 11.8351 61.1286 11.8351H63.5279C64.7236 11.8351 65.5208 11.8152 65.5208 13.0508C65.5208 14.3262 64.6439 14.2465 63.5279 14.2465H60.5424Z" fill="white"/>
<path d="M85.7069 15.9405C85.7069 20.1056 88.7122 23.2544 93.2959 23.2544C97.8596 23.2544 100.845 20.1056 100.845 15.9405C100.845 11.7953 97.8596 8.64648 93.2959 8.64648C88.7122 8.64648 85.7069 11.7953 85.7069 15.9405ZM89.4535 15.9405C89.4535 13.4095 90.8646 12.1301 93.2959 12.1301C95.7073 12.1301 97.1183 13.3896 97.1183 15.9405C97.1183 18.4914 95.7272 19.7707 93.2959 19.7707C90.8646 19.7707 89.4535 18.4914 89.4535 15.9405Z" fill="white"/>
<path fill-rule="evenodd" clip-rule="evenodd" d="M102.908 9.03725H114.859V12.1634H109.548L114.61 18.287C115.079 17.6048 115.473 16.7468 115.755 15.6743L118.779 16.4677C118.316 18.2326 117.579 19.6534 116.654 20.7595L117.77 22.1088L115.36 24.1006L114.248 22.7546C113.784 23.0113 113.301 23.2213 112.804 23.3866C110.203 24.2515 107.398 23.8348 105.304 22.8118C104.25 22.2973 103.295 21.5906 102.62 20.7196C101.94 19.8427 101.489 18.7144 101.68 17.4689C101.871 16.2203 102.659 15.1716 103.808 14.3548C104.474 13.8817 105.292 13.4619 106.264 13.0969L102.908 9.03725ZM108.4 15.6806C107.085 16.0643 106.193 16.4949 105.619 16.9029C104.933 17.3909 104.796 17.7701 104.77 17.9427C104.743 18.1182 104.78 18.4041 105.091 18.8045C105.405 19.2108 105.941 19.6442 106.676 20.0029C108.156 20.7261 110.112 20.9872 111.817 20.4202C111.945 20.3777 112.073 20.3302 112.2 20.2773L108.4 15.6806Z" fill="white"/>
<path d="M71.7428 22.9656H75.1944V18.2026H80.2044C80.5281 18.2026 80.7905 18.4651 80.7905 18.7888V22.9656H84.3977V18.7009C84.3977 17.4055 83.7201 16.1898 81.787 16.1898H80.898C82.7436 16.0663 84.2382 14.8944 84.2382 12.6425C84.2382 9.55348 81.1293 8.91576 77.9407 8.91576H71.7428V22.9656ZM75.1944 15.0539V12.0845H77.9407C79.4752 12.0845 80.6311 12.1243 80.6311 13.5791C80.6311 14.9941 79.555 15.0539 77.9407 15.0539H75.1944Z" fill="white"/>
<path d="M71.2264 37.3205C71.2264 35.1748 70.0858 33.779 67.6144 33.1749L62.7772 31.9875C61.8478 31.7375 61.6154 31.3833 61.6154 30.9667C61.6154 30.1334 62.3548 29.7793 63.77 29.7793C65.7978 29.7793 66.7061 30.4459 66.7061 32.0291H70.6561C70.6561 28.8418 68.3537 26.6753 63.7066 26.6753C59.7989 26.6753 57.6443 28.196 57.6443 31.05C57.6443 32.9041 58.447 34.3831 61.024 35.0706L66.009 36.3622C66.854 36.5705 67.2764 36.9663 67.2764 37.4871C67.2764 38.4037 66.4738 38.7787 64.5938 38.7787C61.8267 38.7787 61.0029 38.0079 61.0029 35.9247H57.0317C57.0317 39.737 59.2497 41.9452 64.5093 41.9452C69.2831 41.9452 71.2264 40.112 71.2264 37.3205Z" fill="black"/>
<path d="M80.278 41.9452C84.5449 41.9452 87.3754 39.6745 87.819 35.9664H83.8689C83.5521 37.5496 82.1791 38.5079 80.2991 38.5079C77.9967 38.5079 76.3491 37.2163 76.3491 34.2998C76.3491 31.4042 77.9967 30.1126 80.2991 30.1126C82.1791 30.1126 83.5521 31.05 83.8689 32.6333H87.819C87.3754 28.946 84.5449 26.6753 80.278 26.6753C75.3986 26.6753 72.378 29.9668 72.378 34.2998C72.378 38.6537 75.3986 41.9452 80.278 41.9452Z" fill="black"/>
<path d="M88.9629 34.2998C88.9629 38.6537 91.9413 41.9452 96.7996 41.9452C101.637 41.9452 104.594 38.6537 104.594 34.2998C104.594 29.9668 101.637 26.6753 96.7996 26.6753C91.9413 26.6753 88.9629 29.9668 88.9629 34.2998ZM92.934 34.2998C92.934 31.6542 94.2225 30.1126 96.7996 30.1126C99.3555 30.1126 100.644 31.6333 100.644 34.2998C100.644 36.9663 99.3766 38.5079 96.7996 38.5079C94.2225 38.5079 92.934 36.9663 92.934 34.2998Z" fill="black"/>
<path d="M106.407 41.6535H110.273V36.6747H115.997V41.6535H119.821V37.1955C119.821 35.8414 119.102 34.5706 117.053 34.5706H116.525C118.067 34.2373 119.652 33.2166 119.652 30.8625C119.652 27.6336 116.356 26.9669 112.977 26.9669H106.407V41.6535ZM110.273 33.3832V30.2792H112.977C114.603 30.2792 115.828 30.3209 115.828 31.8416C115.828 33.3207 114.688 33.3832 112.977 33.3832H110.273Z" fill="black"/>
<path d="M121.899 41.6535H133.749V38.3412H125.765V35.8622H132.693V32.7374H125.765V30.2792H133.749V26.9669H121.899V41.6535Z" fill="black"/>
</svg>
