<svg width="180" height="70" viewBox="0 0 180 70" fill="none" xmlns="http://www.w3.org/2000/svg">
<rect width="180" height="70" rx="28" fill="#950FFF"/>
<rect x="6.21631" y="5.43555" width="65.9622" height="59.0146" rx="23.5037" fill="black"/>
<path d="M11.8682 36.3998C12.8173 39.052 15.1309 41.383 17.8996 43.1601C21.5541 45.5058 26.1161 46.965 29.7489 46.965H48.6449C52.2778 46.965 56.8397 45.5058 60.4943 43.1601C63.263 41.383 65.5766 39.052 66.5257 36.3998L49.8579 36.432C44.7536 36.432 40.4588 39.8969 39.1969 44.6031C37.935 39.8969 33.6403 36.432 28.5359 36.432L11.8682 36.3998Z" fill="white"/>
<path d="M11.8682 49.8791C12.8173 52.5313 15.1309 54.8622 17.8996 56.6394C21.5541 58.9851 26.1161 60.4443 29.7489 60.4443H48.6449C52.2778 60.4443 56.8397 58.9851 60.4943 56.6394C63.263 54.8622 65.5766 52.5313 66.5257 49.8791L49.8579 49.9113C44.7536 49.9113 40.4588 53.3762 39.1969 58.0824C37.935 53.3762 33.6403 49.9113 28.5359 49.9113L11.8682 49.8791Z" fill="white"/>
<path d="M11.8682 20.0056C12.8173 17.3534 15.1309 15.0225 17.8996 13.2453C21.5541 10.8996 26.1161 9.44043 29.7489 9.44043H48.6449C52.2778 9.44043 56.8397 10.8996 60.4943 13.2453C63.263 15.0225 65.5766 17.3534 66.5257 20.0056L49.8579 19.9734C44.7536 19.9734 40.4588 16.5085 39.1969 11.8023C37.935 16.5085 33.6403 19.9734 28.5359 19.9734L11.8682 20.0056Z" fill="white"/>
<path d="M11.8682 33.4848C12.8173 30.8326 15.1309 28.5017 17.8996 26.7246C21.5541 24.3788 26.1161 22.9197 29.7489 22.9197H48.6449C52.2778 22.9197 56.8397 24.3788 60.4943 26.7246C63.263 28.5017 65.5766 30.8326 66.5257 33.4848L49.8579 33.4527C44.7536 33.4527 40.4588 29.9878 39.1969 25.2815C37.935 29.9878 33.6403 33.4527 28.5359 33.4527L11.8682 33.4848Z" fill="white"/>
<path d="M79.3666 31.8381H88.001C93.259 31.8381 97.3825 31.1463 97.3825 26.58C97.3825 23.5359 95.556 21.8478 92.2904 21.5433C93.7572 21.2666 95.9434 20.3257 95.9434 17.0325C95.9434 13.2688 93.259 12.3279 87.8072 12.3279H79.3666V31.8381ZM84.9736 27.5486C84.5241 27.5486 84.1597 27.1842 84.1597 26.7347V23.6466H88.2777C90.7684 23.6466 92.2904 23.5359 92.2904 25.5838C92.2904 27.6316 90.8514 27.5486 88.2777 27.5486H84.9736ZM84.1597 19.7169V17.1822C84.1597 16.7327 84.5241 16.3683 84.9736 16.3683H88.3054C89.9658 16.3683 91.0728 16.3406 91.0728 18.0564C91.0728 19.8275 89.8551 19.7169 88.3054 19.7169H84.1597Z" fill="white"/>
<path d="M119.104 22.0692C119.104 27.853 123.277 32.2255 129.642 32.2255C135.98 32.2255 140.126 27.853 140.126 22.0692C140.126 16.3129 135.98 11.9404 129.642 11.9404C123.277 11.9404 119.104 16.3129 119.104 22.0692ZM124.307 22.0692C124.307 18.5545 126.266 16.778 129.642 16.778C132.991 16.778 134.95 18.5269 134.95 22.0692C134.95 25.6114 133.019 27.388 129.642 27.388C126.266 27.388 124.307 25.6114 124.307 22.0692Z" fill="white"/>
<path fill-rule="evenodd" clip-rule="evenodd" d="M142.99 12.4831H159.586V16.8241H152.211L159.241 25.3277C159.891 24.3804 160.439 23.1888 160.83 21.6995L165.029 22.8013C164.386 25.2521 163.363 27.2251 162.079 28.761L163.628 30.6348L160.282 33.4006L158.737 31.5316C158.093 31.8879 157.422 32.1796 156.732 32.4092C153.12 33.6102 149.225 33.0316 146.317 31.611C144.854 30.8965 143.527 29.9151 142.59 28.7056C141.646 27.488 141.02 25.9212 141.285 24.1916C141.551 22.4578 142.645 21.0014 144.24 19.8673C145.165 19.2102 146.3 18.6274 147.65 18.1205L142.99 12.4831ZM150.616 21.7083C148.79 22.2412 147.553 22.839 146.755 23.4057C145.802 24.0833 145.612 24.6099 145.576 24.8495C145.538 25.0933 145.59 25.4903 146.021 26.0463C146.458 26.6104 147.202 27.2124 148.222 27.7104C150.278 28.7147 152.994 29.0772 155.362 28.2899C155.539 28.2309 155.717 28.1649 155.893 28.0914L150.616 21.7083Z" fill="white"/>
<path d="M103.849 56.5278H112.484C117.742 56.5278 121.865 55.8359 121.865 51.2697C121.865 48.2255 120.039 46.5374 116.773 46.233C118.24 45.9562 120.426 45.0153 120.426 41.7221C120.426 37.9584 117.742 37.0175 112.29 37.0175H103.849V56.5278ZM109.456 52.2383C109.007 52.2383 108.642 51.8739 108.642 51.4243V48.3362H112.76C115.251 48.3362 116.773 48.2255 116.773 50.2734C116.773 52.3213 115.334 52.2383 112.76 52.2383H109.456ZM108.642 44.4065V41.8719C108.642 41.4223 109.007 41.0579 109.456 41.0579H112.788C114.449 41.0579 115.556 41.0303 115.556 42.746C115.556 44.5172 114.338 44.4065 112.788 44.4065H108.642Z" fill="white"/>
<path d="M124.472 56.5278H129.265V49.9136H136.222C136.672 49.9136 137.036 50.2781 137.036 50.7276V56.5278H142.045V50.6055C142.045 48.8067 141.104 47.1186 138.42 47.1186H137.185C139.748 46.9471 141.824 45.3197 141.824 42.1926C141.824 37.9031 137.506 37.0175 133.079 37.0175H124.472V56.5278ZM129.265 45.5411V41.4177H133.079C135.21 41.4177 136.815 41.473 136.815 43.4932C136.815 45.4581 135.32 45.5411 133.079 45.5411H129.265Z" fill="white"/>
<path d="M144.129 46.7588C144.129 52.5427 148.303 56.9152 154.668 56.9152C161.005 56.9152 165.151 52.5427 165.151 46.7588C165.151 41.0026 161.005 36.6301 154.668 36.6301C148.303 36.6301 144.129 41.0026 144.129 46.7588ZM149.332 46.7588C149.332 43.2442 151.292 41.4676 154.668 41.4676C158.016 41.4676 159.976 43.2165 159.976 46.7588C159.976 50.3011 158.044 52.0776 154.668 52.0776C151.292 52.0776 149.332 50.3011 149.332 46.7588Z" fill="white"/>
<path fill-rule="evenodd" clip-rule="evenodd" d="M79.7744 37.1727H96.3698V41.5137H88.9952L96.0247 50.0173C96.675 49.07 97.2233 47.8785 97.6141 46.3891L101.813 47.4909C101.17 49.9417 100.147 51.9147 98.8629 53.4506L100.412 55.3244L97.066 58.0903L95.521 56.2212C94.8772 56.5776 94.2063 56.8693 93.5158 57.0988C89.9042 58.2998 86.0095 57.7212 83.101 56.3006C81.6382 55.5862 80.3115 54.6048 79.3741 53.3952C78.4304 52.1777 77.8038 50.6108 78.069 48.8812C78.3348 47.1474 79.4289 45.6911 81.0246 44.5569C81.9491 43.8999 83.0844 43.317 84.4346 42.8101L79.7744 37.1727ZM87.4005 46.3979C85.5744 46.9308 84.3367 47.5287 83.5395 48.0953C82.586 48.773 82.3966 49.2995 82.3599 49.5391C82.3225 49.7829 82.3743 50.1799 82.8052 50.736C83.2424 51.3001 83.9866 51.902 85.0061 52.4C87.0624 53.4043 89.7785 53.7668 92.1461 52.9796C92.3236 52.9205 92.5008 52.8545 92.6771 52.781L87.4005 46.3979Z" fill="white"/>
<path d="M99.713 31.8246H104.506V25.2105H111.463C111.913 25.2105 112.277 25.5749 112.277 26.0244V31.8246H117.286V25.9023C117.286 24.1035 116.345 22.4154 113.661 22.4154H112.426C114.989 22.2439 117.065 20.6166 117.065 17.4894C117.065 13.1999 112.747 12.3144 108.32 12.3144H99.713V31.8246ZM104.506 20.838V16.7145H108.32C110.451 16.7145 112.056 16.7699 112.056 18.7901C112.056 20.755 110.561 20.838 108.32 20.838H104.506Z" fill="white"/>
</svg>
