<svg width="200" height="70" viewBox="0 0 200 70" fill="none" xmlns="http://www.w3.org/2000/svg">
<rect width="200" height="70" rx="27.9063" fill="#950FFF"/>
<rect x="5.61279" y="5.51318" width="67.0935" height="59.0146" rx="22.5299" fill="white"/>
<mask id="mask0_2350_9059" style="mask-type:alpha" maskUnits="userSpaceOnUse" x="9" y="9" width="60" height="52">
<rect x="9.98389" y="9.72852" width="58.6289" height="50.6922" rx="18.9456" fill="#D9D9D9"/>
</mask>
<g mask="url(#mask0_2350_9059)">
<rect x="9.98389" y="9.72852" width="58.6289" height="50.6922" rx="18.9456" fill="black"/>
<path d="M35.9507 18.9848C37.4184 16.3723 41.1793 16.3723 42.647 18.9848L45.4464 23.9678C45.9949 24.9441 46.9423 25.6324 48.0403 25.8524L53.6445 26.9749C56.5827 27.5635 57.7449 31.1403 55.7138 33.3435L51.8397 37.5457C51.0807 38.3691 50.7188 39.4828 50.8489 40.595L51.5131 46.2719C51.8613 49.2481 48.8186 51.4587 46.0957 50.2078L40.902 47.8219C39.8843 47.3545 38.7134 47.3545 37.6957 47.8219L32.502 50.2078C29.7791 51.4587 26.7364 49.2481 27.0846 46.2719L27.7488 40.595C27.8789 39.4828 27.517 38.3691 26.758 37.5457L22.8839 33.3435C20.8528 31.1403 22.015 27.5635 24.9532 26.9749L30.5574 25.8524C31.6554 25.6324 32.6028 24.9441 33.1513 23.9678L35.9507 18.9848Z" fill="white"/>
</g>
<path d="M79.4482 31.973H88.101C93.3704 31.973 97.5026 31.2796 97.5026 26.7036C97.5026 23.653 95.6722 21.9612 92.3997 21.6562C93.8696 21.3788 96.0605 20.4359 96.0605 17.1356C96.0605 13.3639 93.3704 12.421 87.9069 12.421H79.4482V31.973ZM85.0672 27.6743C84.6167 27.6743 84.2515 27.3091 84.2515 26.8586V23.7639H88.3784C90.8744 23.7639 92.3997 23.653 92.3997 25.7052C92.3997 27.7575 90.9576 27.6743 88.3784 27.6743H85.0672ZM84.2515 19.8258V17.2857C84.2515 16.8352 84.6167 16.47 85.0672 16.47H88.4061C90.0701 16.47 91.1794 16.4423 91.1794 18.1618C91.1794 19.9367 89.9592 19.8258 88.4061 19.8258H84.2515Z" fill="white"/>
<path d="M119.271 22.1831C119.271 27.9794 123.453 32.3612 129.832 32.3612C136.183 32.3612 140.337 27.9794 140.337 22.1831C140.337 16.4146 136.183 12.0327 129.832 12.0327C123.453 12.0327 119.271 16.4146 119.271 22.1831ZM124.485 22.1831C124.485 18.661 126.448 16.8806 129.832 16.8806C133.187 16.8806 135.151 18.6332 135.151 22.1831C135.151 25.733 133.215 27.5134 129.832 27.5134C126.448 27.5134 124.485 25.733 124.485 22.1831Z" fill="white"/>
<path fill-rule="evenodd" clip-rule="evenodd" d="M143.208 12.5765H159.839V16.9268H152.448L159.493 25.4486C160.145 24.4993 160.694 23.3052 161.086 21.8127L165.294 22.9168C164.649 25.3729 163.624 27.3501 162.337 28.8893L163.89 30.7671L160.537 33.5389L158.988 31.6658C158.343 32.0229 157.671 32.3152 156.979 32.5453C153.359 33.7488 149.456 33.169 146.542 31.7454C145.076 31.0294 143.746 30.0459 142.807 28.8338C141.861 27.6136 141.233 26.0434 141.499 24.3101C141.765 22.5726 142.862 21.1131 144.461 19.9765C145.387 19.3181 146.525 18.734 147.878 18.226L143.208 12.5765ZM150.85 21.8215C149.02 22.3555 147.78 22.9546 146.981 23.5225C146.026 24.2016 145.836 24.7293 145.799 24.9694C145.762 25.2137 145.813 25.6116 146.245 26.1688C146.683 26.7341 147.429 27.3373 148.451 27.8364C150.512 28.8428 153.233 29.2061 155.606 28.4172C155.784 28.358 155.962 28.2919 156.138 28.2182L150.85 21.8215Z" fill="white"/>
<path d="M99.8381 31.9594H104.641V25.3312H111.613C112.064 25.3312 112.429 25.6964 112.429 26.1469V31.9594H117.449V26.0245C117.449 24.2218 116.506 22.5301 113.816 22.5301H112.579C115.147 22.3583 117.227 20.7274 117.227 17.5936C117.227 13.2949 112.901 12.4074 108.463 12.4074H99.8381V31.9594ZM104.641 20.9493V16.817H108.463C110.599 16.817 112.207 16.8725 112.207 18.897C112.207 20.8661 110.71 20.9493 108.463 20.9493H104.641Z" fill="white"/>
<path d="M99.1197 51.936C99.1197 48.95 97.5324 47.0077 94.0932 46.167L87.3617 44.5146C86.0683 44.1667 85.745 43.6738 85.745 43.094C85.745 41.9344 86.7738 41.4416 88.7433 41.4416C91.5652 41.4416 92.8292 42.3693 92.8292 44.5725H98.3261C98.3261 40.137 95.122 37.1221 88.6551 37.1221C83.217 37.1221 80.2187 39.2383 80.2187 43.21C80.2187 45.7901 81.3357 47.8484 84.9219 48.8051L91.8591 50.6025C93.0349 50.8924 93.6229 51.4432 93.6229 52.1679C93.6229 53.4435 92.5058 53.9653 89.8897 53.9653C86.0389 53.9653 84.8925 52.8927 84.8925 49.9937H79.3662C79.3662 55.2989 82.4527 58.3718 89.7721 58.3718C96.4154 58.3718 99.1197 55.8207 99.1197 51.936Z" fill="black"/>
<path d="M111.716 58.3718C117.654 58.3718 121.593 55.2119 122.21 50.0517H116.713C116.272 52.2549 114.362 53.5885 111.745 53.5885C108.541 53.5885 106.249 51.7911 106.249 47.7325C106.249 43.7028 108.541 41.9054 111.745 41.9054C114.362 41.9054 116.272 43.21 116.713 45.4132H122.21C121.593 40.282 117.654 37.1221 111.716 37.1221C104.926 37.1221 100.722 41.7025 100.722 47.7325C100.722 53.7914 104.926 58.3718 111.716 58.3718Z" fill="black"/>
<path d="M123.802 47.7325C123.802 53.7914 127.947 58.3718 134.708 58.3718C141.439 58.3718 145.554 53.7914 145.554 47.7325C145.554 41.7025 141.439 37.1221 134.708 37.1221C127.947 37.1221 123.802 41.7025 123.802 47.7325ZM129.328 47.7325C129.328 44.0507 131.121 41.9054 134.708 41.9054C138.264 41.9054 140.058 44.0217 140.058 47.7325C140.058 51.4432 138.294 53.5885 134.708 53.5885C131.121 53.5885 129.328 51.4432 129.328 47.7325Z" fill="black"/>
<path d="M148.078 57.966H153.457V51.0373H161.423V57.966H166.744V51.7621C166.744 49.8777 165.745 48.1093 162.893 48.1093H162.158C164.304 47.6455 166.509 46.225 166.509 42.9491C166.509 38.4556 161.923 37.5279 157.22 37.5279H148.078V57.966ZM153.457 46.4569V42.1374H157.22C159.483 42.1374 161.188 42.1953 161.188 44.3116C161.188 46.3699 159.601 46.4569 157.22 46.4569H153.457Z" fill="black"/>
<path d="M169.636 57.966H186.127V53.3565H175.016V49.9067H184.657V45.5582H175.016V42.1374H186.127V37.5279H169.636V57.966Z" fill="black"/>
</svg>
