<svg width="0" height="0" class="hidden">
  <symbol xmlns="http://www.w3.org/2000/svg" viewBox="0 0 31 34" id="bg_rank">
    <path d="M18.7115 2.29904C16.7004 1.13793 14.2227 1.13793 12.2115 2.29904L4.35514 6.83494C2.34403 7.99605 1.10514 10.1419 1.10514 12.4641V21.5359C1.10514 23.8581 2.34403 26.004 4.35514 27.1651L12.2115 31.701C14.2227 32.8621 16.7004 32.8621 18.7115 31.701L26.568 27.1651C28.5791 26.004 29.818 23.8581 29.818 21.5359V12.4641C29.818 10.1419 28.5791 7.99605 26.568 6.83494L18.7115 2.29904Z" stroke="currentColor" fill="none"></path>
  </symbol>
  <symbol xmlns="http://www.w3.org/2000/svg" viewBox="0 0 30 34" id="bg_rank2">
    <path d="M12 1.73205C13.8564 0.660254 16.1436 0.660254 18 1.73205L26.7224 6.76795C28.5788 7.83975 29.7224 9.82051 29.7224 11.9641V22.0359C29.7224 24.1795 28.5788 26.1603 26.7224 27.232L18 32.2679C16.1436 33.3397 13.8564 33.3397 12 32.2679L3.27757 27.2321C1.42116 26.1603 0.277568 24.1795 0.277568 22.0359V11.9641C0.277568 9.82051 1.42116 7.83975 3.27757 6.76795L12 1.73205Z" fill="currentColor"></path>
  </symbol>
  <symbol xmlns="http://www.w3.org/2000/svg" viewBox="0 0 24 24" id="ic_arr_ver">
    <path d="M6 9L12 15L18 9" stroke="currentColor" stroke-width="1.5" stroke-linecap="round" stroke-linejoin="round" fill="none"></path>
  </symbol>
  <symbol xmlns="http://www.w3.org/2000/svg" viewBox="0 0 14 15" id="ic_arrow_hor">
    <path d="M2.33366 7.49992L11.667 7.49992M6.41699 11.5833L2.33366 7.49992L6.41699 3.41658" stroke="currentColor" stroke-linecap="round" stroke-linejoin="round" fill="none"></path>
  </symbol>
  <symbol xmlns="http://www.w3.org/2000/svg" viewBox="0 0 24 25" id="ic_check">
    <path d="M18 7.5L9.42857 17.5L6 13.5" stroke="currentColor" stroke-width="1.5" stroke-linecap="round" stroke-linejoin="round" fill="none"></path>
  </symbol>
  <symbol xmlns="http://www.w3.org/2000/svg" viewBox="0 0 16 16" id="ic_close">
    <path d="M4.50488 11.495L7.99997 7.99998M11.495 4.50488L7.99997 7.99998M7.99997 7.99998L4.50488 4.50488M7.99997 7.99998L11.495 11.495" stroke="currentColor" stroke-width="1.5" stroke-linecap="round" stroke-linejoin="round" fill="none"></path>
  </symbol>
  <symbol xmlns="http://www.w3.org/2000/svg" viewBox="0 0 24 25" id="ic_close2">
    <path d="M6.75781 17.7426L12.0004 12.5M17.243 7.25732L12.0004 12.5M12.0004 12.5L6.75781 7.25732M12.0004 12.5L17.243 17.7426" stroke="currentColor" stroke-width="1.5" stroke-linecap="round" stroke-linejoin="round" fill="none"></path>
  </symbol>
  <symbol xmlns="http://www.w3.org/2000/svg" viewBox="0 0 16 16" id="ic_error">
    <path d="M12.7603 3.3335C12.1404 2.6994 11.3998 2.19578 10.5822 1.85229C9.76457 1.50881 8.8865 1.33242 7.99968 1.3335C4.31768 1.3335 1.33301 4.31817 1.33301 8.00017C1.3308 9.74568 2.01545 11.422 3.23901 12.6668M12.7597 3.3335C13.9836 4.57822 14.6685 6.25455 14.6663 8.00017C14.6663 11.6822 11.6817 14.6668 7.99968 14.6668C7.11286 14.6679 6.23479 14.4915 5.41719 14.148C4.59959 13.8046 3.85899 13.3009 3.23901 12.6668M12.7597 3.3335L3.23968 12.6668" stroke="currentColor" stroke-width="2" stroke-linecap="round" stroke-linejoin="round" fill="none"></path>
  </symbol>
  <symbol xmlns="http://www.w3.org/2000/svg" viewBox="0 0 24 24" id="ic_eye">
    <path d="M12 14C12.5304 14 13.0391 13.7893 13.4142 13.4142C13.7893 13.0391 14 12.5304 14 12C14 11.4696 13.7893 10.9609 13.4142 10.5858C13.0391 10.2107 12.5304 10 12 10C11.4696 10 10.9609 10.2107 10.5858 10.5858C10.2107 10.9609 10 11.4696 10 12C10 12.5304 10.2107 13.0391 10.5858 13.4142C10.9609 13.7893 11.4696 14 12 14Z" stroke="currentColor" stroke-width="1.5" stroke-linecap="round" stroke-linejoin="round" fill="none"></path>
    <path d="M21 12C19.111 14.991 15.718 18 12 18C8.282 18 4.889 14.991 3 12C5.299 9.158 7.992 6 12 6C16.008 6 18.701 9.158 21 12Z" stroke="currentColor" stroke-width="1.5" stroke-linecap="round" stroke-linejoin="round" fill="none"></path>
  </symbol>
  <symbol xmlns="http://www.w3.org/2000/svg" viewBox="0 0 24 24" id="ic_eye2">
    <path d="M3 3L21 21M10.5 10.677C10.1631 11.0585 9.98426 11.5541 10 12.0629C10.0158 12.5716 10.2249 13.0552 10.5849 13.4151C10.9448 13.7751 11.4284 13.9842 11.9371 14C12.4459 14.0157 12.9415 13.8369 13.323 13.5" stroke="currentColor" stroke-width="1.5" stroke-linecap="round" stroke-linejoin="round" fill="none"></path>
    <path d="M7.362 7.561C5.68 8.74 4.279 10.42 3 12C4.889 14.991 8.282 18 12 18C13.55 18 15.043 17.477 16.395 16.65M12 6C16.008 6 18.701 9.158 21 12C20.6705 12.5208 20.3105 13.0216 19.922 13.5" stroke="currentColor" stroke-width="1.5" stroke-linecap="round" stroke-linejoin="round" fill="none"></path>
  </symbol>
  <symbol xmlns="http://www.w3.org/2000/svg" viewBox="0 0 24 25" id="ic_filter">
    <path fill-rule="evenodd" clip-rule="evenodd" d="M10.0801 19.0928H3.77905C3.36505 19.0928 3.02905 18.7568 3.02905 18.3428C3.02905 17.9288 3.36505 17.5928 3.77905 17.5928H10.0801C10.4941 17.5928 10.8301 17.9288 10.8301 18.3428C10.8301 18.7568 10.4941 19.0928 10.0801 19.0928Z" fill="currentColor"></path>
    <path fill-rule="evenodd" clip-rule="evenodd" d="M19.1909 9.40039H12.8909C12.4769 9.40039 12.1409 9.06439 12.1409 8.65039C12.1409 8.23639 12.4769 7.90039 12.8909 7.90039H19.1909C19.6049 7.90039 19.9409 8.23639 19.9409 8.65039C19.9409 9.06439 19.6049 9.40039 19.1909 9.40039Z" fill="currentColor"></path>
    <mask id="mask0_2099_2550" maskUnits="userSpaceOnUse" x="3" y="5" width="7" height="7">
      <path fill-rule="evenodd" clip-rule="evenodd" d="M3 5.50049H9.2258V11.6921H3V5.50049Z" fill="currentColor"></path>
    </mask>
    <g mask="url(#mask0_2099_2550)">
      <path fill-rule="evenodd" clip-rule="evenodd" d="M6.11276 7C5.22376 7 4.49976 7.716 4.49976 8.597C4.49976 9.477 5.22376 10.192 6.11276 10.192C7.00276 10.192 7.72576 9.477 7.72576 8.597C7.72576 7.716 7.00276 7 6.11276 7ZM6.11276 11.692C4.39676 11.692 2.99976 10.304 2.99976 8.597C2.99976 6.89 4.39676 5.5 6.11276 5.5C7.82976 5.5 9.22576 6.89 9.22576 8.597C9.22576 10.304 7.82976 11.692 6.11276 11.692Z" fill="currentColor"></path>
    </g>
    <path fill-rule="evenodd" clip-rule="evenodd" d="M17.3877 16.708C16.4977 16.708 15.7737 17.424 15.7737 18.304C15.7737 19.185 16.4977 19.9 17.3877 19.9C18.2767 19.9 18.9997 19.185 18.9997 18.304C18.9997 17.424 18.2767 16.708 17.3877 16.708ZM17.3877 21.4C15.6707 21.4 14.2737 20.011 14.2737 18.304C14.2737 16.597 15.6707 15.208 17.3877 15.208C19.1037 15.208 20.4997 16.597 20.4997 18.304C20.4997 20.011 19.1037 21.4 17.3877 21.4Z" fill="currentColor"></path>
  </symbol>
  <symbol xmlns="http://www.w3.org/2000/svg" viewBox="0 0 16 16" id="ic_link_arrow">
    <path fill-rule="evenodd" clip-rule="evenodd" d="M14.0006 2.50035C14.0006 2.36774 13.948 2.24056 13.8542 2.14679C13.7604 2.05302 13.6332 2.00035 13.5006 2.00035H7.50063C7.36802 2.00035 7.24085 2.05302 7.14708 2.14679C7.05331 2.24056 7.00063 2.36774 7.00063 2.50035C7.00063 2.63295 7.05331 2.76013 7.14708 2.8539C7.24085 2.94767 7.36802 3.00035 7.50063 3.00035H12.2936L2.14663 13.1463C2.10014 13.1928 2.06327 13.248 2.03811 13.3088C2.01295 13.3695 2 13.4346 2 13.5003C2 13.5661 2.01295 13.6312 2.03811 13.6919C2.06327 13.7527 2.10014 13.8079 2.14663 13.8543C2.19312 13.9008 2.24831 13.9377 2.30905 13.9629C2.36979 13.988 2.43489 14.001 2.50063 14.001C2.56638 14.001 2.63148 13.988 2.69221 13.9629C2.75295 13.9377 2.80814 13.9008 2.85463 13.8543L13.0006 3.70735V8.50035C13.0006 8.63295 13.0533 8.76013 13.1471 8.8539C13.2408 8.94767 13.368 9.00035 13.5006 9.00035C13.6332 9.00035 13.7604 8.94767 13.8542 8.8539C13.948 8.76013 14.0006 8.63295 14.0006 8.50035V2.50035Z" fill="currentColor"></path>
  </symbol>
  <symbol xmlns="http://www.w3.org/2000/svg" viewBox="0 0 24 25" id="ic_notice">
    <path d="M12 12V17M12 8.01L12.01 7.999M12 22.5C17.523 22.5 22 18.023 22 12.5C22 6.977 17.523 2.5 12 2.5C6.477 2.5 2 6.977 2 12.5C2 18.023 6.477 22.5 12 22.5Z" stroke="currentColor" stroke-width="1.5" stroke-linecap="round" stroke-linejoin="round" fill="none"></path>
  </symbol>
  <symbol xmlns="http://www.w3.org/2000/svg" viewBox="0 0 30 30" id="ic_notification">
    <path fill-rule="evenodd" clip-rule="evenodd" d="M24.5811 7.76164C24.5811 4.3558 22.2526 2.99048 18.9001 2.99048H11.0272C7.77776 2.99048 5.34253 4.26271 5.34253 7.53451V25.764C5.34253 26.6626 6.30942 27.2286 7.09262 26.7892L14.9941 22.3569L22.8273 26.7818C23.6117 27.2236 24.5811 26.6576 24.5811 25.7578V7.76164Z" stroke="currentColor" stroke-width="1.5" stroke-linecap="round" stroke-linejoin="round" fill="none"></path>
    <path d="M10.3831 11.3203H19.4438" stroke="currentColor" stroke-width="1.5" stroke-linecap="round" stroke-linejoin="round" fill="none"></path>
  </symbol>
  <symbol xmlns="http://www.w3.org/2000/svg" viewBox="0 0 24 24" id="ic_pin">
    <path d="M9.5 14.4999L3 20.9999M5 9.4849L14.193 18.6779L15.89 16.9809L15.497 13.1939L21.007 8.5209L15.157 2.6709L10.483 8.1809L6.697 7.7879L5 9.4849Z" stroke="currentColor" stroke-linecap="round" stroke-linejoin="round" fill="none"></path>
  </symbol>
  <symbol xmlns="http://www.w3.org/2000/svg" viewBox="0 0 24 25" id="ic_search">
    <path d="M15.5 16L19 19.5M5 11.5C5 12.2879 5.15519 13.0681 5.45672 13.7961C5.75825 14.5241 6.20021 15.1855 6.75736 15.7426C7.31451 16.2998 7.97595 16.7417 8.7039 17.0433C9.43185 17.3448 10.2121 17.5 11 17.5C11.7879 17.5 12.5681 17.3448 13.2961 17.0433C14.0241 16.7417 14.6855 16.2998 15.2426 15.7426C15.7998 15.1855 16.2417 14.5241 16.5433 13.7961C16.8448 13.0681 17 12.2879 17 11.5C17 9.9087 16.3679 8.38258 15.2426 7.25736C14.1174 6.13214 12.5913 5.5 11 5.5C9.4087 5.5 7.88258 6.13214 6.75736 7.25736C5.63214 8.38258 5 9.9087 5 11.5V11.5Z" stroke="currentColor" stroke-width="1.5" stroke-linecap="round" stroke-linejoin="round" fill="none"></path>
  </symbol>
  <symbol xmlns="http://www.w3.org/2000/svg" viewBox="0 0 28 28" id="ic_social_cyb">
    <circle cx="14" cy="14" r="14" fill="currentColor"></circle>
    <circle cx="14" cy="14" r="7" fill="black"></circle>
  </symbol>
  <symbol xmlns="http://www.w3.org/2000/svg" viewBox="0 0 28 28" id="ic_social_github">
    <path fill-rule="evenodd" clip-rule="evenodd" d="M14 0C6.265 0 0 6.265 0 14C0 20.195 4.0075 25.4275 9.5725 27.2825C10.2725 27.405 10.535 26.985 10.535 26.6175C10.535 26.285 10.5175 25.1825 10.5175 24.01C7 24.6575 6.09 23.1525 5.81 22.365C5.6525 21.9625 4.97 20.72 4.375 20.3875C3.885 20.125 3.185 19.4775 4.3575 19.46C5.46 19.4425 6.2475 20.475 6.51 20.895C7.77 23.0125 9.7825 22.4175 10.5875 22.05C10.71 21.14 11.0775 20.5275 11.48 20.1775C8.365 19.8275 5.11 18.62 5.11 13.265C5.11 11.7425 5.6525 10.4825 6.545 9.5025C6.405 9.1525 5.915 7.7175 6.685 5.7925C6.685 5.7925 7.8575 5.425 10.535 7.2275C11.655 6.9125 12.845 6.755 14.035 6.755C15.225 6.755 16.415 6.9125 17.535 7.2275C20.2125 5.4075 21.385 5.7925 21.385 5.7925C22.155 7.7175 21.665 9.1525 21.525 9.5025C22.4175 10.4825 22.96 11.725 22.96 13.265C22.96 18.6375 19.6875 19.8275 16.5725 20.1775C17.08 20.615 17.5175 21.455 17.5175 22.7675C17.5175 24.64 17.5 26.145 17.5 26.6175C17.5 26.985 17.7625 27.4225 18.4625 27.2825C21.2417 26.3442 23.6567 24.558 25.3676 22.1753C27.0785 19.7926 27.9992 16.9333 28 14C28 6.265 21.735 0 14 0Z" fill="currentColor"></path>
  </symbol>
  <symbol xmlns="http://www.w3.org/2000/svg" viewBox="0 0 28 28" id="ic_social_keybase">
    <circle cx="14" cy="14" r="14" fill="currentColor"></circle>
    <path fill-rule="evenodd" clip-rule="evenodd" d="M11.1115 11.5118C10.8485 10.9876 10.7456 10.3779 10.8126 9.72607C9.07657 9.74086 8.8988 9.03411 8.86934 8.33653L8.93176 7.31906C8.97267 6.65276 9.56127 6.13199 10.2226 6.13199C11.6172 6.18707 11.749 6.22031 12.1356 6.65157L13.0911 5.29688L13.8823 5.76685C13.3589 6.89178 13.5421 7.17391 13.544 7.17622C15.958 7.23166 17.3654 9.22108 16.5543 11.3708C21.4133 13.2387 23.1304 18.12 21.0913 22.7023H20.0397C20.9506 21.1576 21.1947 19.2294 20.8996 17.4846C18.4469 21.1426 15.1136 15.0697 8.57066 20.5545L9.29876 18.2499L7.76526 19.892C7.94909 20.9298 8.36794 21.8863 8.9656 22.7023H7.85478C7.47791 22.0824 7.19074 21.4113 7.00201 20.7093L6.0862 21.69C5.82476 16.7749 6.96241 13.3794 11.1115 11.5118V11.5118ZM13.0097 20.7927C13.0097 20.176 12.344 19.7885 11.8144 20.0968C11.2847 20.4051 11.2847 21.1801 11.8144 21.4884C12.344 21.7967 13.0097 21.4093 13.0097 20.7927ZM17.2659 20.7927C17.2659 20.176 16.6002 19.7885 16.0705 20.0968C15.5408 20.4051 15.5409 21.1801 16.0705 21.4884C16.6002 21.7967 17.2659 21.4093 17.2659 20.7927ZM11.5115 7.66132C11.3046 8.03874 11.1326 8.41717 11.0083 8.80573L10.1012 8.74906C9.91857 8.73777 9.77881 8.57851 9.78945 8.39409L9.85187 7.37669C9.86278 7.19906 10.0087 7.06162 10.1841 7.06162C10.1907 7.06162 11.2114 7.12519 11.2114 7.12519C11.4888 7.16959 11.5603 7.34633 11.5115 7.66132ZM13.9746 11.5183L16.5817 14.758C16.813 15.0443 16.3896 15.3932 16.1582 15.1068L15.8986 14.7837L14.8181 15.6717L14.1313 14.8262L15.2163 13.9345L14.8378 13.4635L14.3169 13.8951L13.9676 13.449L14.4831 13.0219L13.5513 11.8671C13.3287 11.5918 13.7521 11.243 13.9746 11.5183V11.5183Z" fill="black"></path>
  </symbol>
  <symbol xmlns="http://www.w3.org/2000/svg" viewBox="0 0 28 28" id="ic_social_telegram">
    <path fill-rule="evenodd" clip-rule="evenodd" d="M28 14C28 21.7315 21.7315 28 14 28C6.2685 28 0 21.7315 0 14C0 6.2685 6.2685 0 14 0C21.7315 0 28 6.2685 28 14ZM14.5017 10.3355C13.1402 10.9013 10.4183 12.0738 6.33733 13.8518C5.67467 14.1155 5.327 14.3733 5.2955 14.6253C5.24183 15.0523 5.77617 15.2203 6.50183 15.4478C6.601 15.4793 6.70367 15.5108 6.80867 15.5458C7.52383 15.778 8.48517 16.0498 8.9845 16.0603C9.43833 16.0697 9.94467 15.883 10.5035 15.5003C14.3162 12.9255 16.2843 11.6247 16.408 11.5967C16.4955 11.5768 16.6168 11.5512 16.6985 11.6247C16.7802 11.697 16.772 11.8347 16.7638 11.872C16.7102 12.0972 14.6172 14.0443 13.5322 15.0523C13.1938 15.3662 12.9547 15.589 12.9057 15.6403C12.796 15.7535 12.684 15.862 12.5767 15.9658C11.9117 16.6052 11.4147 17.0858 12.6047 17.8698C13.1763 18.2467 13.6337 18.5582 14.0898 18.8685C14.588 19.208 15.085 19.5463 15.729 19.9687C15.8923 20.076 16.0487 20.1868 16.2015 20.2953C16.7813 20.7095 17.3028 21.0805 17.9468 21.0222C18.3202 20.9872 18.7075 20.636 18.9035 19.5872C19.3667 17.1068 20.279 11.7355 20.4902 9.52117C20.503 9.33732 20.4952 9.1526 20.4668 8.9705C20.4499 8.82342 20.3782 8.68809 20.2662 8.59133C20.0993 8.45483 19.8403 8.42567 19.7237 8.428C19.1975 8.43733 18.3902 8.7185 14.5017 10.3355Z" fill="currentColor"></path>
  </symbol>
  <symbol xmlns="http://www.w3.org/2000/svg" viewBox="0 0 28 28" id="ic_social_twitter">
    <path d="M14 0C6.26875 0 0 6.26875 0 14C0 21.7313 6.26875 28 14 28C21.7313 28 28 21.7313 28 14C28 6.26875 21.7313 0 14 0ZM20.7281 10.5531C20.7375 10.7 20.7375 10.8531 20.7375 11.0031C20.7375 15.5906 17.2438 20.875 10.8594 20.875C8.89062 20.875 7.06562 20.3031 5.52812 19.3188C5.80937 19.35 6.07813 19.3625 6.36563 19.3625C7.99063 19.3625 9.48438 18.8125 10.675 17.8813C9.15 17.85 7.86875 16.85 7.43125 15.475C7.96562 15.5531 8.44687 15.5531 8.99687 15.4125C8.21164 15.253 7.50586 14.8265 6.99943 14.2056C6.49299 13.5846 6.21715 12.8075 6.21875 12.0063V11.9625C6.67813 12.2219 7.21875 12.3812 7.78438 12.4031C7.30888 12.0862 6.91893 11.6569 6.6491 11.1532C6.37926 10.6495 6.23789 10.087 6.2375 9.51562C6.2375 8.86875 6.40625 8.27812 6.70938 7.76562C7.58095 8.83855 8.66853 9.71607 9.90145 10.3411C11.1344 10.9662 12.485 11.3249 13.8656 11.3938C13.375 9.03438 15.1375 7.125 17.2563 7.125C18.2563 7.125 19.1562 7.54375 19.7906 8.21875C20.575 8.07188 21.325 7.77812 21.9937 7.38437C21.7344 8.1875 21.1906 8.86562 20.4688 9.29375C21.1688 9.21875 21.8438 9.025 22.4688 8.75313C21.9969 9.44688 21.4062 10.0625 20.7281 10.5531Z" fill="currentColor"></path>
  </symbol>
  <symbol xmlns="http://www.w3.org/2000/svg" viewBox="0 0 16 17" id="ic_sort">
    <path d="M2 5.5L5 2.5M5 2.5L8 5.5M5 2.5V11.5M14 11.5L11 14.5M11 14.5L8 11.5M11 14.5V5.5" stroke="currentColor" stroke-linecap="round" stroke-linejoin="round" fill="none"></path>
  </symbol>
  <symbol xmlns="http://www.w3.org/2000/svg" viewBox="0 0 16 16" id="ic_user">
    <path d="M3.33325 13.3332V12.6665C3.33325 11.4288 3.82492 10.2418 4.70009 9.36667C5.57526 8.4915 6.76224 7.99984 7.99992 7.99984V7.99984C9.2376 7.99984 10.4246 8.4915 11.2997 9.36667C12.1749 10.2418 12.6666 11.4288 12.6666 12.6665V13.3332M7.99992 7.99984C8.70716 7.99984 9.38544 7.71889 9.88554 7.21879C10.3856 6.71869 10.6666 6.04041 10.6666 5.33317C10.6666 4.62593 10.3856 3.94765 9.88554 3.44755C9.38544 2.94746 8.70716 2.6665 7.99992 2.6665C7.29267 2.6665 6.6144 2.94746 6.1143 3.44755C5.6142 3.94765 5.33325 4.62593 5.33325 5.33317C5.33325 6.04041 5.6142 6.71869 6.1143 7.21879C6.6144 7.71889 7.29267 7.99984 7.99992 7.99984V7.99984Z" stroke="currentColor" stroke-linecap="round" stroke-linejoin="round" fill="none"></path>
  </symbol>
</svg>