<svg width="144" height="50" viewBox="0 0 144 50" fill="none" xmlns="http://www.w3.org/2000/svg">
<rect width="144" height="50" rx="20" fill="#950FFF"/>
<rect x="4.0083" y="3.93799" width="47.9044" height="42.1533" rx="16.1314" fill="white"/>
<mask id="mask0_2350_9618" style="mask-type:alpha" maskUnits="userSpaceOnUse" x="7" y="6" width="43" height="38">
<rect x="7.1499" y="6.96582" width="41.9783" height="36.2956" rx="13.565" fill="#D9D9D9"/>
</mask>
<g mask="url(#mask0_2350_9618)">
<rect x="7.1499" y="6.96582" width="41.9783" height="36.2956" rx="13.565" fill="black"/>
<path d="M0.812988 38.6546L14.6602 18.1444C16.986 14.6995 22.0578 14.6995 24.3836 18.1444L33.3691 31.4536C35.6949 34.8984 40.7667 34.8984 43.0925 31.4536L56.9397 10.9434" stroke="white" stroke-width="3.48291"/>
</g>
<rect x="4.0083" y="3.93799" width="47.9044" height="42.1533" rx="16.1314" fill="white"/>
<mask id="mask1_2350_9618" style="mask-type:alpha" maskUnits="userSpaceOnUse" x="7" y="6" width="43" height="38">
<rect x="7.1499" y="6.96582" width="41.9783" height="36.2956" rx="13.565" fill="#D9D9D9"/>
</mask>
<g mask="url(#mask1_2350_9618)">
<rect x="7.1499" y="6.96582" width="41.9783" height="36.2956" rx="13.565" fill="black"/>
<path fill-rule="evenodd" clip-rule="evenodd" d="M23.2953 13.2402C23.7027 12.9429 24.2602 12.9608 24.6477 13.2837L33.0345 20.2728C33.1695 20.3853 33.3652 20.3862 33.5012 20.2751L39.0186 15.7662C39.489 15.3818 40.1819 15.4515 40.5663 15.9219L41.0303 16.4896C41.4146 16.96 41.3449 17.6529 40.8746 18.0373L33.9515 23.6948C33.5435 24.0283 32.9563 24.0255 32.5514 23.6881L24.2588 16.7776C24.1306 16.6707 23.9464 16.664 23.8106 16.7612L3.74253 31.1341C3.28341 31.4629 2.64988 31.3906 2.27667 30.9668L1.79233 30.4168C1.36462 29.9311 1.44666 29.1829 1.96946 28.8014L23.2953 13.2402Z" fill="white"/>
<path d="M44.0497 12.5229C44.4654 12.443 44.8118 12.843 44.6732 13.243L42.2706 20.1769C42.1319 20.5769 41.6123 20.6768 41.3352 20.3568L36.5316 14.8092C36.2545 14.4891 36.4277 13.9891 36.8435 13.9091L44.0497 12.5229Z" fill="white"/>
<rect x="20.2847" y="21.9619" width="6.97288" height="30.3239" rx="1.05018" fill="white"/>
<rect x="11.3657" y="27.2495" width="6.97288" height="21.8916" rx="1.05018" fill="white"/>
<rect x="29.2036" y="26.6646" width="6.97288" height="26.9185" rx="1.05018" fill="white"/>
<rect x="38.1221" y="23.104" width="6.97288" height="31.2969" rx="1.05018" fill="white"/>
</g>
<path d="M56.8853 22.893H63.0807C66.8535 22.893 69.8122 22.3965 69.8122 19.1201C69.8122 16.9358 68.5016 15.7246 66.1585 15.5061C67.2109 15.3076 68.7796 14.6324 68.7796 12.2694C68.7796 9.56886 66.8535 8.89372 62.9417 8.89372H56.8853V22.893ZM60.9085 19.8151C60.5859 19.8151 60.3244 19.5536 60.3244 19.2311V17.0153H63.2792C65.0664 17.0153 66.1585 16.9358 66.1585 18.4053C66.1585 19.8747 65.1259 19.8151 63.2792 19.8151H60.9085ZM60.3244 14.1956V12.3769C60.3244 12.0543 60.5859 11.7929 60.9085 11.7929H63.2991C64.4905 11.7929 65.2848 11.773 65.2848 13.0041C65.2848 14.275 64.4111 14.1956 63.2991 14.1956H60.3244Z" fill="white"/>
<path d="M85.3981 15.8834C85.3981 20.0335 88.3926 23.171 92.9598 23.171C97.507 23.171 100.482 20.0335 100.482 15.8834C100.482 11.7531 97.507 8.61572 92.9598 8.61572C88.3926 8.61572 85.3981 11.7531 85.3981 15.8834ZM89.1313 15.8834C89.1313 13.3616 90.5372 12.0868 92.9598 12.0868C95.3625 12.0868 96.7684 13.3417 96.7684 15.8834C96.7684 18.4251 95.3823 19.6999 92.9598 19.6999C90.5372 19.6999 89.1313 18.4251 89.1313 15.8834Z" fill="white"/>
<path fill-rule="evenodd" clip-rule="evenodd" d="M102.537 9.00508H114.445V12.1199H109.153L114.197 18.2215C114.664 17.5418 115.057 16.6868 115.338 15.6182L118.351 16.4087C117.889 18.1673 117.155 19.5829 116.234 20.685L117.345 22.0295L114.945 24.0141L113.836 22.673C113.374 22.9287 112.893 23.138 112.397 23.3027C109.806 24.1645 107.011 23.7493 104.924 22.73C103.875 22.2173 102.923 21.5131 102.25 20.6453C101.573 19.7716 101.123 18.6474 101.314 17.4063C101.504 16.1623 102.289 15.1173 103.434 14.3035C104.098 13.832 104.912 13.4138 105.881 13.0501L102.537 9.00508ZM108.009 15.6245C106.699 16.0068 105.811 16.4358 105.239 16.8424C104.555 17.3286 104.419 17.7065 104.392 17.8784C104.366 18.0533 104.403 18.3382 104.712 18.7372C105.026 19.1419 105.56 19.5738 106.291 19.9312C107.767 20.6518 109.715 20.9119 111.414 20.347C111.542 20.3047 111.669 20.2573 111.795 20.2046L108.009 15.6245Z" fill="white"/>
<path d="M71.4844 22.8833H74.9236V18.1374H79.9155C80.238 18.1374 80.4995 18.3989 80.4995 18.7215V22.8833H84.0937V18.6338C84.0937 17.3431 83.4185 16.1319 81.4924 16.1319H80.6066C82.4455 16.0088 83.9348 14.8411 83.9348 12.5973C83.9348 9.51945 80.8371 8.88403 77.66 8.88403H71.4844V22.8833ZM74.9236 15V12.0413H77.66C79.189 12.0413 80.3407 12.081 80.3407 13.5306C80.3407 14.9404 79.2684 15 77.66 15H74.9236Z" fill="white"/>
<path d="M70.7782 37.1869C70.7782 35.0489 69.6571 33.6582 67.228 33.0562L62.4737 31.8731C61.5602 31.624 61.3318 31.2711 61.3318 30.856C61.3318 30.0257 62.0585 29.6729 63.4495 29.6729C65.4426 29.6729 66.3353 30.3371 66.3353 31.9146H70.2177C70.2177 28.7388 67.9547 26.5801 63.3872 26.5801C59.5464 26.5801 57.4287 28.0953 57.4287 30.939C57.4287 32.7864 58.2177 34.2601 60.7505 34.9451L65.6502 36.2321C66.4806 36.4396 66.8959 36.834 66.8959 37.3529C66.8959 38.2662 66.1069 38.6399 64.2592 38.6399C61.5395 38.6399 60.7298 37.8718 60.7298 35.7962H56.8267C56.8267 39.5947 59.0066 41.7949 64.1761 41.7949C68.8682 41.7949 70.7782 39.9683 70.7782 37.1869Z" fill="black"/>
<path d="M69.9122 26.8707V30.171H74.625V41.5043H78.3828V30.171H83.0956V26.8707H69.9122Z" fill="black"/>
<path d="M80.3751 41.5043H84.3405L85.7107 37.0831H91.2747L92.645 41.5043H96.6519L91.9806 26.8707H85.0671L80.3751 41.5043ZM86.7488 33.7827L88.4927 28.1991L90.2367 33.7827H86.7488Z" fill="black"/>
<path d="M93.9401 26.8707V30.171H98.6529V41.5043H102.411V30.171H107.123V26.8707H93.9401Z" fill="black"/>
<path d="M120.436 37.1869C120.436 35.0489 119.315 33.6582 116.885 33.0562L112.131 31.8731C111.218 31.624 110.989 31.2711 110.989 30.856C110.989 30.0257 111.716 29.6729 113.107 29.6729C115.1 29.6729 115.993 30.3371 115.993 31.9146H119.875C119.875 28.7388 117.612 26.5801 113.045 26.5801C109.204 26.5801 107.086 28.0953 107.086 30.939C107.086 32.7864 107.875 34.2601 110.408 34.9451L115.308 36.2321C116.138 36.4396 116.553 36.834 116.553 37.3529C116.553 38.2662 115.764 38.6399 113.917 38.6399C111.197 38.6399 110.387 37.8718 110.387 35.7962H106.484C106.484 39.5947 108.664 41.7949 113.834 41.7949C118.526 41.7949 120.436 39.9683 120.436 37.1869Z" fill="black"/>
</svg>
