<svg width="144" height="50" viewBox="0 0 144 50" fill="none" xmlns="http://www.w3.org/2000/svg">
<rect width="144" height="50" rx="20" fill="#950FFF"/>
<rect x="4.56055" y="3.98584" width="48.3723" height="43.2774" rx="17.236" fill="black"/>
<path d="M8.70557 26.6931C9.40159 28.638 11.0982 30.3474 13.1286 31.6506C15.8086 33.3708 19.154 34.4409 21.8181 34.4409H35.6752C38.3393 34.4409 41.6847 33.3708 44.3647 31.6506C46.3951 30.3474 48.0917 28.638 48.7877 26.6931L36.5647 26.7167C32.8215 26.7167 29.6721 29.2576 28.7467 32.7088C27.8213 29.2576 24.6718 26.7167 20.9286 26.7167L8.70557 26.6931Z" fill="white"/>
<path d="M8.70557 36.5779C9.40159 38.5228 11.0982 40.2322 13.1286 41.5354C15.8086 43.2556 19.154 44.3257 21.8181 44.3257H35.6752C38.3393 44.3257 41.6847 43.2556 44.3647 41.5354C46.3951 40.2322 48.0917 38.5228 48.7877 36.5779L36.5647 36.6015C32.8215 36.6015 29.6721 39.1424 28.7467 42.5936C27.8213 39.1424 24.6718 36.6015 20.9286 36.6015L8.70557 36.5779Z" fill="white"/>
<path d="M8.70557 14.6706C9.40159 12.7257 11.0982 11.0163 13.1286 9.7131C15.8086 7.99289 19.154 6.92285 21.8181 6.92285H35.6752C38.3393 6.92285 41.6847 7.99289 44.3647 9.7131C46.3951 11.0163 48.0917 12.7257 48.7877 14.6706L36.5647 14.647C32.8215 14.647 29.6721 12.1061 28.7467 8.65487C27.8213 12.1061 24.6718 14.647 20.9286 14.647L8.70557 14.6706Z" fill="white"/>
<path d="M8.70557 24.5554C9.40159 22.6105 11.0982 20.9011 13.1286 19.5979C15.8086 17.8777 19.154 16.8076 21.8181 16.8076H35.6752C38.3393 16.8076 41.6847 17.8777 44.3647 19.5979C46.3951 20.9011 48.0917 22.6105 48.7877 24.5554L36.5647 24.5318C32.8215 24.5318 29.6721 21.9909 28.7467 18.5397C27.8213 21.9909 24.6718 24.5318 20.9286 24.5318L8.70557 24.5554Z" fill="white"/>
<path d="M58.2025 23.348H64.5344C68.3903 23.348 71.4141 22.8406 71.4141 19.4921C71.4141 17.2597 70.0747 16.0217 67.68 15.7985C68.7556 15.5955 70.3588 14.9055 70.3588 12.4905C70.3588 9.73048 68.3903 9.04047 64.3923 9.04047H58.2025V23.348ZM62.3143 20.2024C61.9847 20.2024 61.7174 19.9351 61.7174 19.6055V17.3409H64.7373C66.5638 17.3409 67.68 17.2597 67.68 18.7615C67.68 20.2632 66.6247 20.2024 64.7373 20.2024H62.3143ZM61.7174 14.4591V12.6003C61.7174 12.2707 61.9847 12.0034 62.3143 12.0034H64.7576C65.9753 12.0034 66.787 11.9831 66.787 13.2414C66.787 14.5402 65.8941 14.4591 64.7576 14.4591H61.7174Z" fill="white"/>
<path d="M87.3433 16.1841C87.3433 20.4256 90.4038 23.6321 95.0715 23.6321C99.7189 23.6321 102.759 20.4256 102.759 16.1841C102.759 11.9629 99.7189 8.75635 95.0715 8.75635C90.4038 8.75635 87.3433 11.9629 87.3433 16.1841ZM91.1586 16.1841C91.1586 13.6067 92.5955 12.3039 95.0715 12.3039C97.5271 12.3039 98.964 13.5864 98.964 16.1841C98.964 18.7818 97.5474 20.0846 95.0715 20.0846C92.5955 20.0846 91.1586 18.7818 91.1586 16.1841Z" fill="white"/>
<path fill-rule="evenodd" clip-rule="evenodd" d="M104.86 9.15428H117.03V12.3377H111.622L116.777 18.5737C117.254 17.879 117.656 17.0052 117.942 15.913L121.021 16.721C120.55 18.5182 119.8 19.9651 118.858 21.0914L119.994 22.4655L117.54 24.4938L116.407 23.1232C115.935 23.3845 115.443 23.5984 114.937 23.7668C112.288 24.6475 109.432 24.2232 107.299 23.1814C106.227 22.6575 105.254 21.9378 104.566 21.0508C103.874 20.1579 103.415 19.0089 103.609 17.7405C103.804 16.4691 104.606 15.4011 105.777 14.5694C106.455 14.0875 107.287 13.6601 108.277 13.2884L104.86 9.15428ZM110.452 15.9194C109.113 16.3102 108.206 16.7487 107.621 17.1642C106.922 17.6611 106.783 18.0473 106.756 18.223C106.728 18.4018 106.766 18.6929 107.082 19.1007C107.403 19.5143 107.949 19.9558 108.696 20.321C110.204 21.0575 112.196 21.3233 113.932 20.746C114.063 20.7027 114.193 20.6543 114.322 20.6004L110.452 15.9194Z" fill="white"/>
<path d="M76.1566 41.4537H82.4884C86.3443 41.4537 89.3682 40.9464 89.3682 37.5978C89.3682 35.3654 88.0287 34.1275 85.634 33.9042C86.7096 33.7013 88.3129 33.0113 88.3129 30.5962C88.3129 27.8362 86.3443 27.1462 82.3463 27.1462H76.1566V41.4537ZM80.2684 38.3081C79.9387 38.3081 79.6715 38.0409 79.6715 37.7112V35.4466H82.6913C84.5178 35.4466 85.634 35.3654 85.634 36.8672C85.634 38.369 84.5787 38.3081 82.6913 38.3081H80.2684ZM79.6715 32.5648V30.7061C79.6715 30.3764 79.9387 30.1092 80.2684 30.1092H82.7116C83.9293 30.1092 84.7411 30.0889 84.7411 31.3471C84.7411 32.646 83.8481 32.5648 82.7116 32.5648H79.6715Z" fill="white"/>
<path d="M91.2798 41.4537H94.7947V36.6034H99.8965C100.226 36.6034 100.493 36.8706 100.493 37.2003V41.4537H104.167V37.1107C104.167 35.7916 103.477 34.5536 101.508 34.5536H100.603C102.482 34.4279 104.004 33.2345 104.004 30.9412C104.004 27.7956 100.838 27.1462 97.5913 27.1462H91.2798V41.4537ZM94.7947 33.3969V30.373H97.5913C99.154 30.373 100.331 30.4136 100.331 31.8951C100.331 33.336 99.2352 33.3969 97.5913 33.3969H94.7947Z" fill="white"/>
<path d="M105.695 34.2898C105.695 38.5313 108.756 41.7378 113.423 41.7378C118.071 41.7378 121.111 38.5313 121.111 34.2898C121.111 30.0686 118.071 26.8621 113.423 26.8621C108.756 26.8621 105.695 30.0686 105.695 34.2898ZM109.511 34.2898C109.511 31.7124 110.948 30.4096 113.423 30.4096C115.879 30.4096 117.316 31.6921 117.316 34.2898C117.316 36.8875 115.899 38.1903 113.423 38.1903C110.948 38.1903 109.511 36.8875 109.511 34.2898Z" fill="white"/>
<path fill-rule="evenodd" clip-rule="evenodd" d="M58.5015 27.26H70.6715V30.4434H65.2634L70.4185 36.6794C70.8953 35.9847 71.2974 35.1109 71.584 34.0187L74.6632 34.8267C74.1916 36.624 73.4413 38.0708 72.4998 39.1972L73.6357 40.5713L71.1821 42.5996L70.049 41.2289C69.5769 41.4903 69.0849 41.7042 68.5786 41.8725C65.93 42.7532 63.0739 42.3289 60.9411 41.2872C59.8683 40.7632 58.8954 40.0435 58.208 39.1565C57.516 38.2636 57.0565 37.1146 57.2509 35.8463C57.4459 34.5748 58.2482 33.5068 59.4184 32.6751C60.0964 32.1933 60.9289 31.7658 61.919 31.3941L58.5015 27.26ZM64.094 34.0252C62.7549 34.4159 61.8473 34.8544 61.2626 35.2699C60.5634 35.7669 60.4245 36.153 60.3976 36.3287C60.3702 36.5075 60.4081 36.7987 60.7242 37.2064C61.0448 37.6201 61.5905 38.0615 62.3382 38.4267C63.8461 39.1632 65.8379 39.429 67.5741 38.8517C67.7043 38.8084 67.8343 38.76 67.9635 38.7061L64.094 34.0252Z" fill="white"/>
<path d="M73.1232 23.3381H76.6381V18.4877H81.7399C82.0696 18.4877 82.3368 18.755 82.3368 19.0846V23.3381H86.0101V18.9951C86.0101 17.676 85.3201 16.438 83.3515 16.438H82.4462C84.3257 16.3123 85.8477 15.1189 85.8477 12.8256C85.8477 9.67998 82.6818 9.03056 79.4347 9.03056H73.1232V23.3381ZM76.6381 15.2812V12.2574H79.4347C80.9974 12.2574 82.1745 12.298 82.1745 13.7794C82.1745 15.2203 81.0786 15.2812 79.4347 15.2812H76.6381Z" fill="white"/>
</svg>
