<svg width="23" height="20" viewBox="0 0 23 20" fill="none" xmlns="http://www.w3.org/2000/svg">
<path d="M17.1134 12.5065C17.6796 11.677 18.1599 10.6686 18.5227 9.45154L21.4493 10.2239C20.8667 12.2224 20.0015 13.8367 18.9467 15.1057L18.6825 15.4235L18.945 15.7428L20.065 17.1055L17.7327 19.0446L16.6197 17.6906L16.3548 17.3683L15.9903 17.5712C15.4213 17.888 14.8278 18.1475 14.2163 18.352C11.0127 19.4234 7.53915 18.9093 4.94147 17.6333C3.63677 16.9924 2.474 16.1215 1.66248 15.0684C0.846035 14.009 0.331224 12.6825 0.551 11.2409C0.771208 9.79642 1.68155 8.54577 3.08714 7.54106C3.90119 6.95918 4.91296 6.43459 6.13379 5.9736L6.78633 5.72719L6.34342 5.18834L2.69569 0.750488H16.5203V3.79733H10.1845H9.12632L9.79826 4.61482L16.3142 12.5421L16.7376 13.0572L17.1134 12.5065ZM9.0926 8.53302L8.88271 8.27766L8.56553 8.37075C6.83878 8.87753 5.63534 9.45526 4.83672 10.0261C3.87685 10.7122 3.59967 11.3107 3.53979 11.7035C3.47961 12.0982 3.59053 12.6025 4.05084 13.1998C4.51341 13.8 5.27012 14.4052 6.26653 14.8946C8.27125 15.8793 10.9254 16.2423 13.2638 15.4603C13.4398 15.4015 13.6156 15.3356 13.7907 15.2622L14.4102 15.0025L13.9837 14.4836L9.0926 8.53302Z" fill="white" stroke="black"/>
</svg>
