<svg width="51" height="45" viewBox="0 0 51 45" fill="none" xmlns="http://www.w3.org/2000/svg">
<path d="M0 22.5C0 17.519 0 15.0285 0.513358 12.9775C2.04914 6.84162 6.8364 2.0507 12.9676 0.51375C15.017 0 17.5056 0 22.4828 0H28.5172C33.4944 0 35.983 0 38.0324 0.51375C44.1636 2.0507 48.9509 6.84162 50.4866 12.9775C51 15.0285 51 17.519 51 22.5C51 27.481 51 29.9715 50.4866 32.0225C48.9509 38.1584 44.1636 42.9493 38.0324 44.4862C35.983 45 33.4944 45 28.5172 45H22.4828C17.5056 45 15.017 45 12.9676 44.4862C6.8364 42.9493 2.04914 38.1584 0.513358 32.0225C0 29.9715 0 27.481 0 22.5Z" fill="#191919"/>
<path d="M4.68164 23.7502C5.40482 25.7726 7.16762 27.55 9.2772 28.9051C12.0618 30.6938 15.5377 31.8064 18.3057 31.8064H25.5045H32.7034C35.4714 31.8064 38.9473 30.6938 41.7319 28.9051C43.8415 27.55 45.6043 25.7726 46.3274 23.7502L33.6276 23.7748C29.7384 23.7748 26.466 26.4168 25.5045 30.0055C24.5431 26.4168 21.2707 23.7748 17.3815 23.7748L4.68164 23.7502Z" fill="white"/>
<path d="M4.68164 34.0286C5.40482 36.0509 7.16762 37.8283 9.2772 39.1834C12.0618 40.9721 15.5377 42.0847 18.3057 42.0847H25.5045H32.7034C35.4714 42.0847 38.9473 40.9721 41.7319 39.1834C43.8415 37.8283 45.6043 36.0509 46.3274 34.0286L33.6276 34.0531C29.7384 34.0531 26.466 36.6951 25.5045 40.2838C24.5431 36.6951 21.2707 34.0531 17.3815 34.0531L4.68164 34.0286Z" fill="white"/>
<path d="M4.68164 11.2493C5.40482 9.2269 7.16762 7.44953 9.2772 6.09442C12.0618 4.30574 15.5377 3.1931 18.3057 3.1931H25.5045H32.7034C35.4714 3.1931 38.9473 4.30574 41.7319 6.09442C43.8415 7.44953 45.6043 9.2269 46.3274 11.2493L33.6276 11.2247C29.7384 11.2247 26.466 8.5827 25.5045 4.99406C24.5431 8.5827 21.2707 11.2247 17.3815 11.2247L4.68164 11.2493Z" fill="white"/>
<path d="M4.68164 21.5275C5.40482 19.5051 7.16762 17.7277 9.2772 16.3726C12.0618 14.5839 15.5377 13.4713 18.3057 13.4713H25.5045H32.7034C35.4714 13.4713 38.9473 14.5839 41.7319 16.3726C43.8415 17.7277 45.6043 19.5051 46.3274 21.5275L33.6276 21.5029C29.7384 21.5029 26.466 18.8609 25.5045 15.2723C24.5431 18.8609 21.2707 21.5029 17.3815 21.5029L4.68164 21.5275Z" fill="white"/>
</svg>
