<svg width="24" height="25" viewBox="0 0 24 25" xmlns="http://www.w3.org/2000/svg">
<path fill-rule="evenodd" clip-rule="evenodd" d="M10.0801 19.0928H3.77905C3.36505 19.0928 3.02905 18.7568 3.02905 18.3428C3.02905 17.9288 3.36505 17.5928 3.77905 17.5928H10.0801C10.4941 17.5928 10.8301 17.9288 10.8301 18.3428C10.8301 18.7568 10.4941 19.0928 10.0801 19.0928Z" fill="currentColor"/>
<path fill-rule="evenodd" clip-rule="evenodd" d="M19.1909 9.40039H12.8909C12.4769 9.40039 12.1409 9.06439 12.1409 8.65039C12.1409 8.23639 12.4769 7.90039 12.8909 7.90039H19.1909C19.6049 7.90039 19.9409 8.23639 19.9409 8.65039C19.9409 9.06439 19.6049 9.40039 19.1909 9.40039Z" fill="currentColor"/>
<mask id="mask0_2099_2550" style="mask-type:alpha" maskUnits="userSpaceOnUse" x="3" y="5" width="7" height="7">
<path fill-rule="evenodd" clip-rule="evenodd" d="M3 5.50049H9.2258V11.6921H3V5.50049Z" fill="currentColor"/>
</mask>
<g mask="url(#mask0_2099_2550)">
<path fill-rule="evenodd" clip-rule="evenodd" d="M6.11276 7C5.22376 7 4.49976 7.716 4.49976 8.597C4.49976 9.477 5.22376 10.192 6.11276 10.192C7.00276 10.192 7.72576 9.477 7.72576 8.597C7.72576 7.716 7.00276 7 6.11276 7ZM6.11276 11.692C4.39676 11.692 2.99976 10.304 2.99976 8.597C2.99976 6.89 4.39676 5.5 6.11276 5.5C7.82976 5.5 9.22576 6.89 9.22576 8.597C9.22576 10.304 7.82976 11.692 6.11276 11.692Z" fill="currentColor"/>
</g>
<path fill-rule="evenodd" clip-rule="evenodd" d="M17.3877 16.708C16.4977 16.708 15.7737 17.424 15.7737 18.304C15.7737 19.185 16.4977 19.9 17.3877 19.9C18.2767 19.9 18.9997 19.185 18.9997 18.304C18.9997 17.424 18.2767 16.708 17.3877 16.708ZM17.3877 21.4C15.6707 21.4 14.2737 20.011 14.2737 18.304C14.2737 16.597 15.6707 15.208 17.3877 15.208C19.1037 15.208 20.4997 16.597 20.4997 18.304C20.4997 20.011 19.1037 21.4 17.3877 21.4Z" fill="currentColor"/>
</svg>
