<svg width="267" height="236" viewBox="0 0 267 236" fill="none" xmlns="http://www.w3.org/2000/svg">
<rect width="267" height="235.408" rx="89.6794" fill="white"/>
<path d="M24.5066 124.245C28.2926 134.824 37.5214 144.122 48.5657 151.211C63.1437 160.568 81.3414 166.389 95.8326 166.389H133.521H171.209C185.7 166.389 203.898 160.568 218.476 151.211C229.52 144.122 238.749 134.824 242.535 124.245L176.047 124.373C155.686 124.373 138.554 138.194 133.521 156.967C128.487 138.194 111.355 124.373 90.994 124.373L24.5066 124.245Z" fill="black"/>
<path d="M24.5066 178.013C28.2926 188.593 37.5214 197.891 48.5657 204.98C63.1437 214.337 81.3414 220.158 95.8326 220.158H133.521H171.209C185.7 220.158 203.898 214.337 218.476 204.98C229.52 197.891 238.749 188.593 242.535 178.013L176.047 178.142C155.686 178.142 138.554 191.963 133.521 210.736C128.487 191.963 111.355 178.142 90.994 178.142L24.5066 178.013Z" fill="black"/>
<path d="M24.5066 58.8479C28.2926 48.2683 37.5214 38.9703 48.5657 31.8814C63.1437 22.5242 81.3414 16.7037 95.8326 16.7037H133.521H171.209C185.7 16.7037 203.898 22.5242 218.476 31.8814C229.52 38.9703 238.749 48.2683 242.535 58.8479L176.047 58.7196C155.686 58.7196 138.554 44.8983 133.521 26.1251C128.487 44.8983 111.355 58.7196 90.994 58.7196L24.5066 58.8479Z" fill="black"/>
<path d="M24.5066 112.617C28.2926 102.037 37.5214 92.7391 48.5657 85.6502C63.1437 76.293 81.3414 70.4725 95.8326 70.4725H133.521H171.209C185.7 70.4725 203.898 76.293 218.476 85.6502C229.52 92.7391 238.749 102.037 242.535 112.617L176.047 112.488C155.686 112.488 138.554 98.6671 133.521 79.8939C128.487 98.6671 111.355 112.488 90.994 112.488L24.5066 112.617Z" fill="black"/>
</svg>
