<svg width="421" height="484" viewBox="0 0 421 484" fill="none" xmlns="http://www.w3.org/2000/svg">
<path d="M3 300L92 389" stroke="#191919"/>
<circle cx="92" cy="389" r="2.5" fill="white" stroke="white"/>
<circle cx="3" cy="300" r="2.5" fill="white" stroke="white"/>
<path d="M264.646 271.537L211.782 306.889" stroke="#191919"/>
<circle cx="211.783" cy="306.889" r="1.51579" transform="rotate(101.228 211.783 306.889)" fill="#191919"/>
<circle cx="264.646" cy="271.537" r="1.51579" transform="rotate(101.228 264.646 271.537)" fill="#191919"/>
<path d="M177.765 21.4346L42.6218 120.778" stroke="#191919"/>
<path d="M205.41 164.324L43.3975 120.913" stroke="#191919"/>
<path d="M204.642 164.889L178.642 20.6796" stroke="#191919"/>
<circle cx="43.9544" cy="120.804" r="3.9978" transform="rotate(98.6805 43.9544 120.804)" fill="white"/>
<circle cx="177.215" cy="22.1914" r="3.9978" transform="rotate(98.6805 177.215 22.1914)" fill="#191919"/>
<circle cx="203.867" cy="162.114" r="3.9978" transform="rotate(98.6805 203.867 162.114)" fill="#191919"/>
<g filter="url(#filter0_f_2204_2619)">
<rect x="163" y="452" width="71" height="28" rx="14" fill="white" fill-opacity="0.05"/>
</g>
<g filter="url(#filter1_f_2204_2619)">
<rect x="346" y="88" width="71" height="28" rx="14" fill="white" fill-opacity="0.05"/>
</g>
<rect x="80" y="297" width="71" height="28" rx="14" fill="white" fill-opacity="0.1"/>
<defs>
<filter id="filter0_f_2204_2619" x="159" y="448" width="79" height="36" filterUnits="userSpaceOnUse" color-interpolation-filters="sRGB">
<feFlood flood-opacity="0" result="BackgroundImageFix"/>
<feBlend mode="normal" in="SourceGraphic" in2="BackgroundImageFix" result="shape"/>
<feGaussianBlur stdDeviation="2" result="effect1_foregroundBlur_2204_2619"/>
</filter>
<filter id="filter1_f_2204_2619" x="342" y="84" width="79" height="36" filterUnits="userSpaceOnUse" color-interpolation-filters="sRGB">
<feFlood flood-opacity="0" result="BackgroundImageFix"/>
<feBlend mode="normal" in="SourceGraphic" in2="BackgroundImageFix" result="shape"/>
<feGaussianBlur stdDeviation="2" result="effect1_foregroundBlur_2204_2619"/>
</filter>
</defs>
</svg>
